<?xml version="1.0" encoding="iso-8859-1"?>
<!-- Uploaded to: SVG Repo, www.svgrepo.com, Generator: SVG Repo Mixer Tools -->
<svg height="800px" width="800px" version="1.1" id="Layer_1" xmlns="http://www.w3.org/2000/svg" xmlns:xlink="http://www.w3.org/1999/xlink" 
	 viewBox="0 0 512 512" xml:space="preserve">

<path style="fill:#bfdbfe;" d="M213.079,212.251C263.067,262.237,256,350.349,256,350.349s-88.112,7.067-138.099-42.92
	S74.98,169.331,74.98,169.331S163.092,162.264,213.079,212.251z"/>
<path style="fill:#2563eb;" d="M298.92,212.251C248.933,262.237,256,350.349,256,350.349s88.112,7.067,138.099-42.92
	s42.92-138.099,42.92-138.099S348.908,162.264,298.92,212.251z"/>
<path style="fill:#60a5fa" d="M323.301,222.349c0,70.693-67.301,128-67.301,128s-67.301-57.307-67.301-128s67.301-128,67.301-128
	S323.301,151.657,323.301,222.349z"/>
</svg>