<?xml version="1.0" encoding="utf-8"?>
<svg width="815" height="815" viewBox="0 0 815 815" fill="none" xmlns="http://www.w3.org/2000/svg">
  <defs>
    <linearGradient id="gradient_1" gradientUnits="userSpaceOnUse" x1="0" y1="0" x2="815" y2="815">
      <stop offset="0" stop-color="#F8FAFC" />
      <stop offset="1" stop-color="#E5E7EB" />
    </linearGradient>
  </defs>
  <g>
    <path d="M783 0C800.676 0 815 14.3245 815 32L815 783C815 800.676 800.676 815 783 815L32 815C14.3245 815 0 800.676 0 783L0 32C0 14.3245 14.3245 0 32 0L783 0Z" fill="url(#gradient_1)" />
    <g transform="translate(119 203)">
      <path d="M220.372 68.8665C299.943 148.434 288.693 288.69 288.693 288.69C288.693 288.69 148.437 299.94 68.8679 220.371C-10.7012 140.801 0.546391 0.54657 0.546391 0.54657C0.546391 0.54657 140.803 -10.7026 220.372 68.8665C220.372 68.8665 220.372 68.8665 220.372 68.8665Z" fill="#BFDBFE" fill-rule="evenodd" transform="translate(0 118.81)" />
      <path d="M68.8665 68.8679C-10.7027 148.435 0.54657 288.692 0.54657 288.692C0.54657 288.692 140.803 299.941 220.372 220.372C299.941 140.803 288.692 0.546379 288.692 0.546379C288.692 0.546379 148.437 -10.7013 68.8665 68.8679C68.8665 68.8679 68.8665 68.8679 68.8665 68.8679Z" fill="#2563EB" fill-rule="evenodd" transform="translate(288.147 118.808)" />
      <path d="M214.259 203.75C214.259 316.279 107.129 407.5 107.129 407.5C107.129 407.5 0 316.279 0 203.75C0 91.2211 107.129 0 107.129 0C107.129 0 214.259 91.2227 214.259 203.75C214.259 203.75 214.259 203.75 214.259 203.75Z" fill="#60A5FA" fill-rule="evenodd" transform="translate(181.564 0)" />
    </g>
  </g>
</svg>